<mxfile host="app.diagrams.net" modified="2022-02-26T09:04:58.824Z" agent="5.0 (Macintosh; Intel Mac OS X 10_15_7) AppleWebKit/537.36 (KHTML, like Gecko) Chrome/98.0.4758.109 Safari/537.36" etag="FFWx-8K4SlGiCQyi8DV_" version="16.6.4" type="github">
  <diagram id="xa2C5-RHbDfitTDMOKoE" name="Page-1">
    <mxGraphModel dx="1426" dy="794" grid="1" gridSize="10" guides="1" tooltips="1" connect="1" arrows="1" fold="1" page="1" pageScale="1" pageWidth="1654" pageHeight="2336" math="0" shadow="0">
      <root>
        <mxCell id="0" />
        <mxCell id="1" parent="0" />
        <mxCell id="hXcvNlXCr-RtmqkZDTux-1" value="" style="rounded=0;whiteSpace=wrap;html=1;fillColor=#ffe6cc;strokeColor=#d79b00;" vertex="1" parent="1">
          <mxGeometry x="120" y="180" width="90" height="180" as="geometry" />
        </mxCell>
        <mxCell id="hXcvNlXCr-RtmqkZDTux-2" value="" style="rounded=0;whiteSpace=wrap;html=1;fillColor=#d5e8d4;strokeColor=#82b366;" vertex="1" parent="1">
          <mxGeometry x="240" y="180" width="190" height="180" as="geometry" />
        </mxCell>
        <mxCell id="hXcvNlXCr-RtmqkZDTux-8" style="edgeStyle=orthogonalEdgeStyle;rounded=0;orthogonalLoop=1;jettySize=auto;html=1;entryX=0;entryY=0.5;entryDx=0;entryDy=0;" edge="1" parent="1" source="hXcvNlXCr-RtmqkZDTux-3" target="hXcvNlXCr-RtmqkZDTux-5">
          <mxGeometry relative="1" as="geometry">
            <Array as="points">
              <mxPoint x="250" y="235" />
              <mxPoint x="250" y="270" />
            </Array>
          </mxGeometry>
        </mxCell>
        <mxCell id="hXcvNlXCr-RtmqkZDTux-3" value="指针1" style="rounded=1;whiteSpace=wrap;html=1;" vertex="1" parent="1">
          <mxGeometry x="137.5" y="220" width="52.5" height="30" as="geometry" />
        </mxCell>
        <mxCell id="hXcvNlXCr-RtmqkZDTux-10" style="edgeStyle=orthogonalEdgeStyle;rounded=0;orthogonalLoop=1;jettySize=auto;html=1;entryX=0;entryY=0.5;entryDx=0;entryDy=0;" edge="1" parent="1" source="hXcvNlXCr-RtmqkZDTux-4" target="hXcvNlXCr-RtmqkZDTux-5">
          <mxGeometry relative="1" as="geometry">
            <Array as="points">
              <mxPoint x="250" y="305" />
              <mxPoint x="250" y="270" />
            </Array>
          </mxGeometry>
        </mxCell>
        <mxCell id="hXcvNlXCr-RtmqkZDTux-4" value="指针2" style="rounded=1;whiteSpace=wrap;html=1;" vertex="1" parent="1">
          <mxGeometry x="137.5" y="290" width="55" height="30" as="geometry" />
        </mxCell>
        <mxCell id="hXcvNlXCr-RtmqkZDTux-5" value="内存地址" style="rounded=1;whiteSpace=wrap;html=1;" vertex="1" parent="1">
          <mxGeometry x="310" y="255" width="55" height="30" as="geometry" />
        </mxCell>
        <mxCell id="hXcvNlXCr-RtmqkZDTux-6" value="栈" style="text;html=1;strokeColor=none;fillColor=none;align=center;verticalAlign=middle;whiteSpace=wrap;rounded=0;" vertex="1" parent="1">
          <mxGeometry x="135" y="180" width="60" height="30" as="geometry" />
        </mxCell>
        <mxCell id="hXcvNlXCr-RtmqkZDTux-7" value="堆" style="text;html=1;strokeColor=none;fillColor=none;align=center;verticalAlign=middle;whiteSpace=wrap;rounded=0;" vertex="1" parent="1">
          <mxGeometry x="305" y="180" width="60" height="30" as="geometry" />
        </mxCell>
        <mxCell id="hXcvNlXCr-RtmqkZDTux-12" value="" style="rounded=0;whiteSpace=wrap;html=1;fillColor=#ffe6cc;strokeColor=#d79b00;" vertex="1" parent="1">
          <mxGeometry x="520" y="180" width="90" height="180" as="geometry" />
        </mxCell>
        <mxCell id="hXcvNlXCr-RtmqkZDTux-13" value="" style="rounded=0;whiteSpace=wrap;html=1;fillColor=#d5e8d4;strokeColor=#82b366;" vertex="1" parent="1">
          <mxGeometry x="640" y="180" width="190" height="180" as="geometry" />
        </mxCell>
        <mxCell id="hXcvNlXCr-RtmqkZDTux-23" style="edgeStyle=orthogonalEdgeStyle;rounded=0;orthogonalLoop=1;jettySize=auto;html=1;entryX=0;entryY=0.5;entryDx=0;entryDy=0;" edge="1" parent="1" source="hXcvNlXCr-RtmqkZDTux-15" target="hXcvNlXCr-RtmqkZDTux-18">
          <mxGeometry relative="1" as="geometry" />
        </mxCell>
        <mxCell id="hXcvNlXCr-RtmqkZDTux-15" value="指针1" style="rounded=1;whiteSpace=wrap;html=1;" vertex="1" parent="1">
          <mxGeometry x="537.5" y="220" width="52.5" height="30" as="geometry" />
        </mxCell>
        <mxCell id="hXcvNlXCr-RtmqkZDTux-24" style="edgeStyle=orthogonalEdgeStyle;rounded=0;orthogonalLoop=1;jettySize=auto;html=1;entryX=0;entryY=0.5;entryDx=0;entryDy=0;" edge="1" parent="1" source="hXcvNlXCr-RtmqkZDTux-17" target="hXcvNlXCr-RtmqkZDTux-22">
          <mxGeometry relative="1" as="geometry" />
        </mxCell>
        <mxCell id="hXcvNlXCr-RtmqkZDTux-17" value="指针2" style="rounded=1;whiteSpace=wrap;html=1;" vertex="1" parent="1">
          <mxGeometry x="537.5" y="290" width="55" height="30" as="geometry" />
        </mxCell>
        <mxCell id="hXcvNlXCr-RtmqkZDTux-18" value="内存地址" style="rounded=1;whiteSpace=wrap;html=1;" vertex="1" parent="1">
          <mxGeometry x="712.5" y="220" width="55" height="30" as="geometry" />
        </mxCell>
        <mxCell id="hXcvNlXCr-RtmqkZDTux-19" value="栈" style="text;html=1;strokeColor=none;fillColor=none;align=center;verticalAlign=middle;whiteSpace=wrap;rounded=0;" vertex="1" parent="1">
          <mxGeometry x="535" y="180" width="60" height="30" as="geometry" />
        </mxCell>
        <mxCell id="hXcvNlXCr-RtmqkZDTux-78" value="" style="whiteSpace=wrap;html=1;rounded=0;fontSize=15;gradientColor=#ffffff;dashed=1;" vertex="1" parent="1">
          <mxGeometry x="460" y="670" width="740" height="290" as="geometry" />
        </mxCell>
        <mxCell id="hXcvNlXCr-RtmqkZDTux-20" value="堆" style="text;html=1;strokeColor=none;fillColor=none;align=center;verticalAlign=middle;whiteSpace=wrap;rounded=0;" vertex="1" parent="1">
          <mxGeometry x="712.5" y="180" width="60" height="30" as="geometry" />
        </mxCell>
        <mxCell id="hXcvNlXCr-RtmqkZDTux-22" value="内存地址" style="rounded=1;whiteSpace=wrap;html=1;" vertex="1" parent="1">
          <mxGeometry x="712.5" y="290" width="55" height="30" as="geometry" />
        </mxCell>
        <mxCell id="hXcvNlXCr-RtmqkZDTux-25" value="&lt;font style=&quot;font-size: 15px&quot;&gt;&lt;b&gt;浅拷贝&lt;/b&gt;&lt;/font&gt;" style="text;html=1;strokeColor=#666666;fillColor=#f5f5f5;align=center;verticalAlign=middle;whiteSpace=wrap;rounded=0;fontColor=#333333;" vertex="1" parent="1">
          <mxGeometry x="240" y="130" width="60" height="30" as="geometry" />
        </mxCell>
        <mxCell id="hXcvNlXCr-RtmqkZDTux-27" value="&lt;font style=&quot;font-size: 15px&quot;&gt;&lt;b&gt;深拷贝&lt;/b&gt;&lt;/font&gt;" style="text;html=1;strokeColor=#666666;fillColor=#f5f5f5;align=center;verticalAlign=middle;whiteSpace=wrap;rounded=0;fontColor=#333333;" vertex="1" parent="1">
          <mxGeometry x="640" y="130" width="60" height="30" as="geometry" />
        </mxCell>
        <mxCell id="hXcvNlXCr-RtmqkZDTux-33" value="" style="whiteSpace=wrap;html=1;fontSize=15;rounded=0;fillColor=#dae8fc;strokeColor=#6c8ebf;" vertex="1" parent="1">
          <mxGeometry x="490" y="710" width="338.75" height="220" as="geometry" />
        </mxCell>
        <mxCell id="hXcvNlXCr-RtmqkZDTux-46" value="运行时数据区" style="text;html=1;align=center;verticalAlign=middle;resizable=0;points=[];autosize=1;strokeColor=none;fillColor=none;fontSize=15;" vertex="1" parent="1">
          <mxGeometry x="615" y="710" width="110" height="20" as="geometry" />
        </mxCell>
        <mxCell id="hXcvNlXCr-RtmqkZDTux-47" value="堆" style="whiteSpace=wrap;html=1;rounded=1;fontSize=15;fillColor=#ffe6cc;strokeColor=#d79b00;" vertex="1" parent="1">
          <mxGeometry x="520" y="740" width="90" height="60" as="geometry" />
        </mxCell>
        <mxCell id="hXcvNlXCr-RtmqkZDTux-48" value="栈(线程)" style="whiteSpace=wrap;html=1;rounded=1;fontSize=15;fillColor=#e1d5e7;strokeColor=#9673a6;" vertex="1" parent="1">
          <mxGeometry x="637.5" y="740" width="82.5" height="60" as="geometry" />
        </mxCell>
        <mxCell id="hXcvNlXCr-RtmqkZDTux-49" value="本地方法栈" style="whiteSpace=wrap;html=1;rounded=1;fontSize=15;fillColor=#e1d5e7;strokeColor=#9673a6;" vertex="1" parent="1">
          <mxGeometry x="730" y="740" width="82.5" height="60" as="geometry" />
        </mxCell>
        <mxCell id="hXcvNlXCr-RtmqkZDTux-51" value="" style="endArrow=classic;html=1;rounded=0;fontSize=15;exitX=0;exitY=0.5;exitDx=0;exitDy=0;entryX=1;entryY=0.5;entryDx=0;entryDy=0;" edge="1" parent="1">
          <mxGeometry width="50" height="50" relative="1" as="geometry">
            <mxPoint x="637.5" y="760" as="sourcePoint" />
            <mxPoint x="610" y="760" as="targetPoint" />
          </mxGeometry>
        </mxCell>
        <mxCell id="hXcvNlXCr-RtmqkZDTux-52" value="" style="endArrow=classic;html=1;rounded=0;fontSize=15;exitX=0;exitY=0.5;exitDx=0;exitDy=0;entryX=1;entryY=0.5;entryDx=0;entryDy=0;" edge="1" parent="1">
          <mxGeometry width="50" height="50" relative="1" as="geometry">
            <mxPoint x="637.5" y="780" as="sourcePoint" />
            <mxPoint x="610" y="780" as="targetPoint" />
          </mxGeometry>
        </mxCell>
        <mxCell id="hXcvNlXCr-RtmqkZDTux-54" value="程序计数器" style="whiteSpace=wrap;html=1;rounded=1;fontSize=15;fillColor=#e1d5e7;strokeColor=#9673a6;" vertex="1" parent="1">
          <mxGeometry x="638.75" y="830" width="171.25" height="60" as="geometry" />
        </mxCell>
        <mxCell id="hXcvNlXCr-RtmqkZDTux-82" style="edgeStyle=orthogonalEdgeStyle;rounded=0;orthogonalLoop=1;jettySize=auto;html=1;entryX=0.5;entryY=1;entryDx=0;entryDy=0;fontSize=15;" edge="1" parent="1">
          <mxGeometry relative="1" as="geometry">
            <mxPoint x="555" y="830" as="sourcePoint" />
            <mxPoint x="555" y="800" as="targetPoint" />
          </mxGeometry>
        </mxCell>
        <mxCell id="hXcvNlXCr-RtmqkZDTux-86" style="edgeStyle=orthogonalEdgeStyle;curved=1;rounded=0;orthogonalLoop=1;jettySize=auto;html=1;entryX=0.5;entryY=0;entryDx=0;entryDy=0;fontSize=15;" edge="1" parent="1" source="hXcvNlXCr-RtmqkZDTux-55" target="hXcvNlXCr-RtmqkZDTux-85">
          <mxGeometry relative="1" as="geometry" />
        </mxCell>
        <mxCell id="hXcvNlXCr-RtmqkZDTux-55" value="方法区&lt;br&gt;(元空间）" style="whiteSpace=wrap;html=1;rounded=1;fontSize=15;fillColor=#ffe6cc;strokeColor=#d79b00;" vertex="1" parent="1">
          <mxGeometry x="520" y="830" width="90" height="60" as="geometry" />
        </mxCell>
        <mxCell id="hXcvNlXCr-RtmqkZDTux-59" style="edgeStyle=orthogonalEdgeStyle;rounded=0;orthogonalLoop=1;jettySize=auto;html=1;fontSize=15;" edge="1" parent="1" source="hXcvNlXCr-RtmqkZDTux-56">
          <mxGeometry relative="1" as="geometry">
            <mxPoint x="830" y="770" as="targetPoint" />
          </mxGeometry>
        </mxCell>
        <mxCell id="hXcvNlXCr-RtmqkZDTux-68" value="" style="edgeStyle=orthogonalEdgeStyle;rounded=0;orthogonalLoop=1;jettySize=auto;html=1;fontSize=15;" edge="1" parent="1" source="hXcvNlXCr-RtmqkZDTux-56" target="hXcvNlXCr-RtmqkZDTux-67">
          <mxGeometry relative="1" as="geometry" />
        </mxCell>
        <mxCell id="hXcvNlXCr-RtmqkZDTux-56" value="类加载子系统" style="whiteSpace=wrap;html=1;rounded=0;fontSize=15;fillColor=#dae8fc;strokeColor=#6c8ebf;" vertex="1" parent="1">
          <mxGeometry x="880" y="740" width="120" height="60" as="geometry" />
        </mxCell>
        <mxCell id="hXcvNlXCr-RtmqkZDTux-63" style="edgeStyle=orthogonalEdgeStyle;rounded=0;orthogonalLoop=1;jettySize=auto;html=1;entryX=0.5;entryY=0;entryDx=0;entryDy=0;fontSize=15;exitX=0.5;exitY=0;exitDx=0;exitDy=0;" edge="1" parent="1" source="hXcvNlXCr-RtmqkZDTux-57" target="hXcvNlXCr-RtmqkZDTux-54">
          <mxGeometry relative="1" as="geometry">
            <mxPoint x="940" y="830" as="sourcePoint" />
            <mxPoint x="724.375" y="820" as="targetPoint" />
            <Array as="points">
              <mxPoint x="940" y="810" />
              <mxPoint x="724" y="810" />
            </Array>
          </mxGeometry>
        </mxCell>
        <mxCell id="hXcvNlXCr-RtmqkZDTux-64" value="修改" style="edgeLabel;html=1;align=center;verticalAlign=middle;resizable=0;points=[];fontSize=15;" vertex="1" connectable="0" parent="hXcvNlXCr-RtmqkZDTux-63">
          <mxGeometry x="0.0798" y="1" relative="1" as="geometry">
            <mxPoint as="offset" />
          </mxGeometry>
        </mxCell>
        <mxCell id="hXcvNlXCr-RtmqkZDTux-75" style="edgeStyle=orthogonalEdgeStyle;rounded=0;orthogonalLoop=1;jettySize=auto;html=1;fontSize=15;" edge="1" parent="1" source="hXcvNlXCr-RtmqkZDTux-57">
          <mxGeometry relative="1" as="geometry">
            <mxPoint x="830" y="860" as="targetPoint" />
          </mxGeometry>
        </mxCell>
        <mxCell id="hXcvNlXCr-RtmqkZDTux-76" style="edgeStyle=orthogonalEdgeStyle;rounded=0;orthogonalLoop=1;jettySize=auto;html=1;entryX=1;entryY=0.5;entryDx=0;entryDy=0;fontSize=15;" edge="1" parent="1" source="hXcvNlXCr-RtmqkZDTux-57" target="hXcvNlXCr-RtmqkZDTux-73">
          <mxGeometry relative="1" as="geometry">
            <Array as="points">
              <mxPoint x="940" y="920" />
            </Array>
          </mxGeometry>
        </mxCell>
        <mxCell id="hXcvNlXCr-RtmqkZDTux-87" value="执行" style="edgeLabel;html=1;align=center;verticalAlign=middle;resizable=0;points=[];fontSize=15;" vertex="1" connectable="0" parent="hXcvNlXCr-RtmqkZDTux-76">
          <mxGeometry x="0.0381" y="-4" relative="1" as="geometry">
            <mxPoint as="offset" />
          </mxGeometry>
        </mxCell>
        <mxCell id="hXcvNlXCr-RtmqkZDTux-57" value="字节码执行引擎" style="whiteSpace=wrap;html=1;rounded=0;fontSize=15;fillColor=#dae8fc;strokeColor=#6c8ebf;" vertex="1" parent="1">
          <mxGeometry x="880" y="830" width="120" height="60" as="geometry" />
        </mxCell>
        <mxCell id="hXcvNlXCr-RtmqkZDTux-66" style="edgeStyle=orthogonalEdgeStyle;rounded=0;orthogonalLoop=1;jettySize=auto;html=1;entryX=0.5;entryY=0;entryDx=0;entryDy=0;fontSize=15;" edge="1" parent="1" source="hXcvNlXCr-RtmqkZDTux-65" target="hXcvNlXCr-RtmqkZDTux-56">
          <mxGeometry relative="1" as="geometry" />
        </mxCell>
        <mxCell id="hXcvNlXCr-RtmqkZDTux-65" value="java Math.class" style="whiteSpace=wrap;html=1;rounded=0;fontSize=15;gradientColor=#ffffff;" vertex="1" parent="1">
          <mxGeometry x="880" y="610" width="120" height="40" as="geometry" />
        </mxCell>
        <mxCell id="hXcvNlXCr-RtmqkZDTux-70" value="" style="edgeStyle=orthogonalEdgeStyle;rounded=0;orthogonalLoop=1;jettySize=auto;html=1;fontSize=15;" edge="1" parent="1" source="hXcvNlXCr-RtmqkZDTux-67" target="hXcvNlXCr-RtmqkZDTux-69">
          <mxGeometry relative="1" as="geometry" />
        </mxCell>
        <mxCell id="hXcvNlXCr-RtmqkZDTux-67" value="类加载过程" style="whiteSpace=wrap;html=1;fontSize=15;fillColor=#dae8fc;strokeColor=#6c8ebf;rounded=0;" vertex="1" parent="1">
          <mxGeometry x="1050" y="700" width="120" height="30" as="geometry" />
        </mxCell>
        <mxCell id="hXcvNlXCr-RtmqkZDTux-72" value="" style="edgeStyle=orthogonalEdgeStyle;rounded=0;orthogonalLoop=1;jettySize=auto;html=1;fontSize=15;" edge="1" parent="1" source="hXcvNlXCr-RtmqkZDTux-69" target="hXcvNlXCr-RtmqkZDTux-71">
          <mxGeometry relative="1" as="geometry" />
        </mxCell>
        <mxCell id="hXcvNlXCr-RtmqkZDTux-69" value="类加载器" style="whiteSpace=wrap;html=1;fontSize=15;fillColor=#dae8fc;strokeColor=#6c8ebf;rounded=0;" vertex="1" parent="1">
          <mxGeometry x="1050" y="755" width="120" height="25" as="geometry" />
        </mxCell>
        <mxCell id="hXcvNlXCr-RtmqkZDTux-71" value="双亲委派机制" style="whiteSpace=wrap;html=1;fontSize=15;fillColor=#dae8fc;strokeColor=#6c8ebf;rounded=0;" vertex="1" parent="1">
          <mxGeometry x="1050" y="800" width="120" height="30" as="geometry" />
        </mxCell>
        <mxCell id="hXcvNlXCr-RtmqkZDTux-73" value="Math.class" style="ellipse;whiteSpace=wrap;html=1;rounded=0;fontSize=15;gradientColor=#ffffff;" vertex="1" parent="1">
          <mxGeometry x="470" y="900" width="80" height="40" as="geometry" />
        </mxCell>
        <mxCell id="hXcvNlXCr-RtmqkZDTux-79" value="JVM虚拟机" style="text;html=1;align=center;verticalAlign=middle;resizable=0;points=[];autosize=1;strokeColor=none;fillColor=none;fontSize=15;" vertex="1" parent="1">
          <mxGeometry x="738.75" y="670" width="90" height="20" as="geometry" />
        </mxCell>
        <mxCell id="hXcvNlXCr-RtmqkZDTux-84" style="edgeStyle=orthogonalEdgeStyle;rounded=0;orthogonalLoop=1;jettySize=auto;html=1;entryX=0.5;entryY=0;entryDx=0;entryDy=0;fontSize=15;curved=1;" edge="1" parent="1" source="hXcvNlXCr-RtmqkZDTux-80" target="hXcvNlXCr-RtmqkZDTux-73">
          <mxGeometry relative="1" as="geometry" />
        </mxCell>
        <mxCell id="hXcvNlXCr-RtmqkZDTux-80" value="Math" style="ellipse;whiteSpace=wrap;html=1;rounded=0;dashed=1;fontSize=15;fillColor=#f8cecc;strokeColor=#b85450;" vertex="1" parent="1">
          <mxGeometry x="500" y="730" width="50" height="30" as="geometry" />
        </mxCell>
        <mxCell id="hXcvNlXCr-RtmqkZDTux-83" style="edgeStyle=orthogonalEdgeStyle;rounded=0;orthogonalLoop=1;jettySize=auto;html=1;entryX=0.5;entryY=1;entryDx=0;entryDy=0;fontSize=15;" edge="1" parent="1">
          <mxGeometry relative="1" as="geometry">
            <mxPoint x="573" y="830" as="sourcePoint" />
            <mxPoint x="573" y="800" as="targetPoint" />
          </mxGeometry>
        </mxCell>
        <mxCell id="hXcvNlXCr-RtmqkZDTux-85" value="直接内存" style="whiteSpace=wrap;html=1;rounded=0;fontSize=15;gradientColor=#ffffff;" vertex="1" parent="1">
          <mxGeometry x="525" y="980" width="80" height="50" as="geometry" />
        </mxCell>
      </root>
    </mxGraphModel>
  </diagram>
</mxfile>
